<svg xmlns="http://www.w3.org/2000/svg" width="1024" height="1024" viewBox="0 0 1024 1024"><path fill="#FFF" d="M512 0c110.933 0 217.6 38.4 307.2 106.667l102.4-102.4 102.4 422.4L601.6 320l128-123.733C665.6 153.6 588.8 128 512 128c-213.333 0-384 170.667-384 384 0 38.4 4.267 72.533 17.067 106.667L21.333 652.8C8.533 605.867 0 558.933 0 507.733 0 230.4 230.4 0 512 0zm298.667 930.133c-38.4 29.867-85.334 51.2-128 68.267L640 878.933c34.133-12.8 68.267-29.866 98.133-51.2l72.534 102.4zM832 721.067l106.667 68.266c-17.067 25.6-38.4 51.2-59.734 72.534l-93.866-89.6c21.333-12.8 34.133-34.134 46.933-51.2zm-597.333 55.466l-93.867 89.6c-34.133-34.133-64-76.8-85.333-119.466l115.2-59.734c17.066 34.134 38.4 64 64 89.6zm332.8 115.2l17.066 128C558.933 1024 537.6 1024 512 1024s-46.933 0-72.533-4.267l17.066-128c38.4 4.267 72.534 4.267 110.934 0zm-179.2-17.066L345.6 994.133c-46.933-17.066-89.6-38.4-128-68.266l72.533-102.4c29.867 21.333 59.734 38.4 98.134 51.2z"/></svg>