<svg xmlns="http://www.w3.org/2000/svg" xmlns:xlink="http://www.w3.org/1999/xlink" width="23" height="23" viewBox="0 0 46 46"><defs><filter id="svg1447337122__a" width="145.8%" height="145.8%" x="-22.9%" y="-17.4%" filterUnits="objectBoundingBox"><feMorphology in="SourceAlpha" operator="dilate" radius="1.25" result="shadowSpreadOuter1"/><feOffset dy="2" in="shadowSpreadOuter1" result="shadowOffsetOuter1"/><feGaussianBlur in="shadowOffsetOuter1" result="shadowBlurOuter1" stdDeviation="2"/><feComposite in="shadowBlurOuter1" in2="SourceAlpha" operator="out" result="shadowBlurOuter1"/><feColorMatrix in="shadowBlurOuter1" values="0 0 0 0 0 0 0 0 0 0 0 0 0 0 0 0 0 0 0.696982563 0"/></filter><path id="svg1447337122__b" d="M31.076 29.037l.353-.353 4.703 4.696-.352.353C32.38 37.13 27.853 39 23.03 39s-9.354-1.87-12.754-5.266c-7.032-7.023-7.032-18.446 0-25.467C13.674 4.87 18.204 3 23.028 3c4.655 0 9.038 1.742 12.395 4.92l3.508-3.503L41 18.307 27.088 16.24l3.628-3.623a11.305 11.305 0 00-7.69-2.98c-3.044 0-5.903 1.18-8.05 3.324-4.44 4.434-4.44 11.645 0 16.077a11.32 11.32 0 008.05 3.324c3.046 0 5.904-1.18 8.05-3.323zm-7.75-3.843a3.9 3.9 0 01-3.903-3.897 3.9 3.9 0 013.903-3.897 3.9 3.9 0 013.903 3.897 3.9 3.9 0 01-3.904 3.897z"/></defs><use filter="url(#svg1447337122__a)" xlink:href="#svg1447337122__b"/><use fill-rule="evenodd" stroke="#FFF" stroke-width="2.5" xlink:href="#svg1447337122__b"/></svg>